<?xml version="1.0" standalone="no"?>
<!DOCTYPE svg PUBLIC "-//W3C//DTD SVG 20010904//EN"
 "http://www.w3.org/TR/2001/REC-SVG-20010904/DTD/svg10.dtd">
<svg version="1.0" xmlns="http://www.w3.org/2000/svg"
 width="184.000000pt" height="184.000000pt" viewBox="0 0 184.000000 184.000000"
 preserveAspectRatio="xMidYMid meet">
<metadata>
Created by potrace 1.11, written by Peter Selinger 2001-2013
</metadata>
<g transform="translate(0.000000,184.000000) scale(0.100000,-0.100000)"
fill="#000000" stroke="none">
<path d="M38 1833 c12 -2 32 -2 45 0 12 2 2 4 -23 4 -25 0 -35 -2 -22 -4z"/>
<path d="M218 1833 c17 -2 47 -2 65 0 17 2 3 4 -33 4 -36 0 -50 -2 -32 -4z"/>
<path d="M371 1833 l56 -4 1 -112 c1 -130 -9 -213 -26 -210 -6 2 -22 -7 -36
-20 -39 -36 -56 -48 -56 -41 0 3 -7 0 -17 -7 -22 -19 -151 -19 -162 -1 -5 8
-11 13 -15 13 -3 -1 -17 6 -30 15 -19 12 -29 13 -45 4 -12 -6 -22 -9 -22 -8
-1 2 -5 50 -9 108 l-7 105 -1 -152 -2 -153 220 0 220 0 -5 -27 c-3 -16 -7 -89
-9 -163 -3 -74 -5 -136 -6 -137 0 -1 -9 0 -20 2 -11 2 -20 -1 -20 -7 0 -29
-104 -78 -166 -78 -49 0 -145 44 -171 79 -11 14 -12 13 -13 -9 0 -35 -18 -12
-23 30 -2 19 -5 -7 -5 -57 l-2 -93 213 -2 212 -3 -4 -115 c-3 -114 -15 -166
-45 -196 -9 -8 -21 -23 -28 -33 -19 -27 -88 -61 -125 -61 -53 0 -126 30 -160
67 -22 23 -33 29 -33 19 0 -30 -19 -16 -23 17 -2 17 -5 -11 -5 -63 l-2 -95
162 3 c90 2 186 1 214 -3 l51 -6 -3 -142 c-3 -204 -3 -194 -14 -177 -6 10 -10
11 -10 3 0 -7 -6 -13 -13 -13 -8 0 -22 -9 -31 -19 -27 -30 -101 -61 -145 -61
-43 0 -103 22 -140 51 -29 23 -41 24 -41 2 0 -30 -18 0 -23 37 -2 19 -5 0 -5
-42 l-2 -78 920 0 920 0 0 920 0 920 -317 -2 c-175 -1 -283 -4 -240 -5 l78 -4
-5 -57 c-3 -31 -5 -99 -5 -149 l-1 -93 -40 -26 c-22 -15 -38 -30 -35 -34 7
-11 -102 -50 -140 -50 -19 0 -46 5 -62 12 -15 6 -30 12 -33 13 -31 8 -50 18
-50 27 0 6 -10 8 -24 4 -23 -6 -25 -3 -30 46 -3 29 -7 110 -10 180 l-5 127 62
4 62 3 -75 2 -75 2 -1 -32 c-1 -18 -3 -83 -5 -144 -4 -103 -6 -112 -32 -143
-47 -56 -125 -101 -176 -101 -34 0 -106 31 -145 61 -14 11 -33 19 -40 16 -20
-8 -26 23 -26 129 0 50 -3 119 -6 153 l-7 61 -71 -2 c-68 -2 -68 -2 -15 -5z
m1444 -75 c-3 -40 -7 -95 -10 -123 -2 -27 -4 -59 -4 -71 -1 -32 -101 -126
-128 -121 -12 2 -20 1 -18 -3 8 -14 -62 -21 -104 -11 -23 5 -57 21 -75 35 -24
18 -36 22 -39 13 -3 -6 -6 -1 -7 13 -2 25 -2 25 -14 -4 -13 -29 -13 -29 -19
25 -5 45 -11 287 -8 312 1 4 98 7 216 7 l216 0 -6 -72z m-923 -533 c-2 -77 -5
-147 -8 -155 -6 -19 -84 -77 -129 -96 -46 -19 -119 -18 -163 3 -21 9 -39 20
-42 24 -3 3 -15 9 -26 13 -15 5 -24 1 -29 -11 -14 -32 -23 24 -24 152 -1 66
-6 139 -10 162 -5 23 -6 45 -3 48 3 3 103 4 221 3 l216 -3 -3 -140z m463 58
c-12 -193 -11 -188 -71 -249 -40 -41 -60 -55 -74 -51 -11 3 -18 1 -15 -4 3 -4
-4 -11 -17 -13 -32 -7 -78 -3 -78 8 0 4 -8 5 -17 2 -19 -7 -123 59 -123 78 0
6 -4 6 -9 -2 -13 -21 -20 36 -21 178 -1 69 -1 128 -1 133 1 4 98 7 216 7 l215
0 -5 -87z m458 -60 c-6 -146 -13 -183 -35 -183 -6 0 -16 -6 -22 -14 -6 -8 -33
-26 -60 -40 -60 -32 -134 -34 -186 -6 -85 46 -81 45 -89 31 -19 -30 -22 -5
-36 262 l-4 97 219 0 219 0 -6 -147z m-920 -463 l-3 -145 -37 -33 c-82 -72
-112 -87 -173 -86 -55 1 -160 37 -160 56 0 20 -30 6 -31 -14 -1 -19 -2 -17 -9
7 -4 17 -10 103 -13 192 l-4 162 31 4 c17 2 114 4 216 3 l185 -1 -2 -145z
m468 25 c-1 -66 -6 -136 -11 -155 -16 -57 -124 -130 -194 -130 -45 0 -116 19
-116 32 0 4 -7 8 -15 8 -8 0 -15 5 -15 11 0 7 -12 10 -30 7 -28 -4 -30 -2 -34
36 -8 66 -14 305 -8 311 3 3 100 4 215 3 l209 -3 -1 -120z m455 63 c-4 -35 -7
-96 -8 -136 -1 -64 -5 -78 -29 -112 -40 -55 -100 -92 -158 -98 -48 -4 -115 11
-137 32 -29 27 -55 46 -64 46 -6 0 -10 -8 -11 -17 -1 -10 -5 -2 -9 17 -7 26
-14 269 -10 322 0 4 97 7 216 8 l216 1 -6 -63z m-933 -510 c-2 -62 -6 -127 -9
-144 -5 -36 -90 -134 -116 -134 -9 0 -20 -4 -23 -10 -11 -17 -107 -11 -150 10
-55 27 -78 42 -89 59 -7 11 -10 11 -17 0 -6 -9 -9 2 -9 31 -1 73 -11 264 -15
277 -2 6 1 14 8 17 7 2 105 5 218 5 l207 1 -5 -112z m470 -34 c-6 -145 -6
-146 -37 -181 -41 -45 -81 -70 -139 -82 -56 -13 -99 -1 -170 48 -26 17 -52 29
-57 26 -6 -4 -10 23 -10 72 -1 84 -6 153 -15 221 l-6 42 220 0 220 0 -6 -146z
m469 120 c-2 -11 -5 -67 -7 -126 -3 -112 -11 -168 -24 -168 -4 0 -21 -12 -37
-26 -76 -67 -173 -84 -249 -43 -22 12 -43 27 -47 33 -5 7 -8 6 -8 -4 -1 -11
-4 -10 -15 4 -10 14 -15 15 -15 6 0 -11 -3 -11 -12 -2 -9 9 -14 63 -17 177
l-3 164 48 4 c27 3 126 3 219 2 160 -2 170 -4 167 -21z"/>
<path d="M1505 1722 c-12 -31 -5 -42 25 -42 38 0 41 -7 43 -111 l2 -84 30 0
30 0 5 95 c5 91 6 96 28 97 12 0 27 1 32 2 6 1 10 12 10 26 0 17 -6 25 -17 25
-10 1 -55 2 -100 3 -61 1 -84 -1 -88 -11z"/>
<path d="M578 1283 c-16 -4 -18 -19 -18 -129 l0 -125 28 3 c26 3 27 6 32 71
l5 69 38 -66 c39 -65 60 -82 91 -70 14 6 16 22 14 128 -3 108 -5 121 -22 124
-29 6 -38 -12 -38 -72 0 -31 -4 -56 -9 -56 -5 0 -5 7 -2 17 4 9 2 14 -3 10 -5
-3 -23 15 -39 41 -28 45 -44 63 -55 61 -3 -1 -13 -3 -22 -6z"/>
<path d="M1119 1243 c-2 -16 -4 -73 -4 -128 l0 -100 30 0 c17 0 32 -3 35 -7 3
-3 4 50 3 119 -1 69 -5 128 -8 131 -3 3 -16 8 -29 9 -19 3 -24 -2 -27 -24z"/>
<path d="M1148 973 c6 -2 18 -2 25 0 6 3 1 5 -13 5 -14 0 -19 -2 -12 -5z"/>
<path d="M1484 1277 c-2 -7 -3 -65 -2 -128 l3 -114 28 -3 c30 -4 29 -6 28 81
0 58 0 58 18 35 9 -13 27 -39 39 -59 29 -49 44 -59 70 -52 22 5 23 9 20 127
l-3 121 -25 0 c-24 0 -25 -4 -30 -65 -5 -63 -6 -64 -19 -37 -8 15 -18 27 -24
27 -5 0 -6 7 -3 16 3 8 2 12 -3 9 -5 -3 -13 4 -16 15 -10 32 -71 52 -81 27z"/>
<path d="M579 783 c-3 -48 2 -167 7 -186 13 -44 107 -61 161 -28 36 23 39 35
35 154 l-3 88 -32 -3 -32 -3 3 -80 c4 -94 -9 -122 -50 -112 -18 5 -25 14 -25
29 -1 13 -1 56 -2 96 l-1 72 -30 0 c-26 0 -30 -4 -31 -27z"/>
<path d="M1090 807 c-30 -15 -45 -54 -36 -90 7 -29 51 -57 89 -57 38 0 61 -32
31 -44 -22 -8 -64 4 -64 19 0 7 -7 18 -15 25 -10 9 -15 9 -15 1 0 -6 -7 -11
-15 -11 -20 0 -20 -44 0 -60 8 -7 13 -15 11 -19 -2 -3 23 -8 56 -9 93 -5 140
39 117 108 -9 25 -20 33 -67 46 -70 20 -80 29 -53 43 22 12 61 0 61 -19 0 -13
47 -13 55 0 10 16 -23 67 -47 74 -37 9 -81 7 -108 -7z"/>
<path d="M1503 792 c-8 -33 -1 -38 55 -41 21 -1 24 -3 12 -11 -9 -6 -11 -13
-5 -17 6 -5 10 -42 10 -83 l0 -75 33 -3 32 -3 0 95 0 96 35 0 c28 0 35 4 35
20 0 11 1 23 3 28 1 4 -44 9 -101 12 -101 5 -103 5 -109 -18z"/>
<path d="M650 215 l0 -126 32 3 32 3 0 120 0 120 -32 3 -32 3 0 -126z"/>
<path d="M1060 215 l0 -125 96 0 95 0 -3 28 c-3 26 -5 27 -63 27 -55 0 -60 2
-63 23 -3 20 0 22 51 22 40 0 56 4 61 15 12 33 -4 45 -60 45 -41 0 -54 4 -54
15 0 8 8 15 18 16 9 0 37 1 62 2 41 2 45 5 48 30 l3 27 -95 0 -96 0 0 -125z"/>
<path d="M1554 350 c-26 -10 -54 -48 -54 -71 0 -9 8 -27 19 -40 20 -26 18 -49
-5 -49 -25 0 -12 -51 17 -73 35 -25 79 -30 122 -12 73 30 80 107 13 139 -19 9
-41 16 -49 16 -26 0 -47 12 -47 26 0 19 59 18 66 -1 7 -17 64 -21 64 -4 0 16
-21 53 -39 66 -18 14 -76 16 -107 3z m22 -156 c-5 -14 -4 -15 8 -5 18 15 60
-3 53 -22 -6 -20 -66 -17 -72 5 -4 10 -11 18 -16 18 -5 0 -9 5 -9 10 0 6 9 10
21 10 15 0 19 -4 15 -16z"/>
<path d="M563 1833 c9 -2 23 -2 30 0 6 3 -1 5 -18 5 -16 0 -22 -2 -12 -5z"/>
<path d="M658 1833 c6 -2 18 -2 25 0 6 3 1 5 -13 5 -14 0 -19 -2 -12 -5z"/>
<path d="M1098 1833 c17 -2 47 -2 65 0 17 2 3 4 -33 4 -36 0 -50 -2 -32 -4z"/>
<path d="M3 1720 c0 -25 2 -35 4 -22 2 12 2 32 0 45 -2 12 -4 2 -4 -23z"/>
<path d="M99 1733 c-1 -23 -1 -134 0 -190 1 -41 3 -43 31 -43 29 0 29 0 32 67
l3 66 39 -67 c36 -62 42 -67 70 -64 l31 3 0 120 0 120 -27 3 c-30 4 -30 6 -31
-80 0 -26 -4 -45 -8 -42 -5 3 -25 32 -45 64 -31 51 -41 60 -65 60 -21 0 -29
-5 -30 -17z"/>
<path d="M998 1743 c-10 -2 -18 -6 -18 -7 0 -11 63 -215 71 -232 6 -11 9 -24
8 -30 -5 -25 5 -29 78 -27 99 2 93 0 93 21 0 10 16 73 36 141 28 99 33 126 22
133 -27 17 -43 2 -65 -61 l-21 -65 -11 40 c-6 21 -11 49 -11 61 0 16 -8 25
-24 29 -35 8 -42 1 -56 -56 -7 -27 -16 -50 -20 -50 -4 0 -13 21 -20 47 -10 42
-25 65 -40 62 -3 -1 -13 -3 -22 -6z m170 -249 c-2 -1 -15 0 -29 3 -29 5 -29
10 -6 83 l10 35 14 -59 c7 -33 12 -60 11 -62z"/>
<path d="M660 1730 l-65 -5 -3 -123 -3 -123 98 3 c79 2 98 6 99 18 1 28 -15
36 -70 33 -53 -2 -56 -1 -56 22 0 22 4 24 46 23 50 -1 68 10 62 38 -2 15 -14
20 -56 22 -43 3 -53 6 -48 18 3 9 6 16 6 17 0 1 25 0 55 -1 l55 -4 0 30 c0 35
-18 40 -120 32z"/>
<path d="M155 1272 c-40 -25 -55 -56 -55 -119 0 -44 5 -58 28 -84 38 -42 107
-55 153 -27 66 40 78 154 21 210 -38 38 -102 47 -147 20z m87 -60 c-1 -8 2
-11 8 -7 14 9 31 -41 24 -71 -4 -14 -17 -32 -30 -41 -22 -14 -26 -14 -49 1
-14 9 -28 28 -31 42 -6 25 10 71 31 87 15 11 50 3 47 -11z"/>
<path d="M3 1160 c0 -25 2 -35 4 -22 2 12 2 32 0 45 -2 12 -4 2 -4 -23z"/>
<path d="M135 813 c-7 -19 -8 -230 -1 -241 3 -6 38 -10 78 -10 67 0 74 2 100
30 15 16 30 45 34 63 8 46 -15 114 -47 138 -35 25 -156 40 -164 20z m126 -74
c17 -17 20 -29 16 -62 -6 -45 -20 -58 -57 -55 -24 3 -25 6 -26 71 0 63 1 67
23 67 13 0 33 -10 44 -21z"/>
<path d="M127 343 c-4 -3 -7 -60 -7 -125 l0 -118 35 0 c35 0 35 0 35 45 0 41
2 45 25 45 25 0 45 -25 45 -57 0 -27 18 -42 42 -35 18 4 20 10 14 56 -7 59 -7
58 0 113 5 33 2 45 -15 62 -18 18 -33 21 -94 21 -41 0 -77 -3 -80 -7z m133
-68 c0 -17 -38 -35 -57 -28 -7 3 -13 14 -13 24 0 15 7 19 35 19 25 0 35 -4 35
-15z"/>
</g>
</svg>
